<svg width="75" height="75" viewBox="0 0 75 75" fill="none" xmlns="http://www.w3.org/2000/svg">
<path d="M37.4912 3C37.4589 3.00091 37.4267 3.00287 37.3945 3.00586C37.374 3.00739 37.3535 3.00934 37.333 3.01172C37.2937 3.01603 37.2546 3.0219 37.2158 3.0293C37.1664 3.03856 37.1175 3.05029 37.0693 3.06445C37.0237 3.07793 36.9787 3.09357 36.9346 3.11133C36.9307 3.11326 36.9267 3.11522 36.9229 3.11719C36.9081 3.12282 36.8935 3.12868 36.8789 3.13477C36.8631 3.1423 36.8475 3.15012 36.832 3.1582C36.5607 3.29172 36.336 3.50413 36.1875 3.76758L36.3457 3.45117L6.71484 21.6094C6.49652 21.7435 6.31619 21.9313 6.19106 22.1549C6.06592 22.3785 6.00014 22.6305 6 22.8867V52.1514C6.00014 52.4076 6.06592 52.6595 6.19105 52.8831C6.31619 53.1067 6.49652 53.2946 6.71484 53.4287L15.7148 58.9453C15.9423 59.085 16.2029 59.1615 16.4698 59.1668C16.7367 59.1721 17.0002 59.1062 17.2331 58.9757C17.466 58.8452 17.6598 58.655 17.7946 58.4246C17.9294 58.1942 18.0003 57.932 18 57.665V28.7666L37.5 16.8164L57 28.7666V57.665C56.9997 57.932 57.0706 58.1942 57.2054 58.4246C57.3402 58.655 57.534 58.8452 57.7669 58.9757C57.9998 59.1062 58.2633 59.1721 58.5302 59.1668C58.7971 59.1615 59.0577 59.085 59.2852 58.9453L68.2852 53.4287C68.5035 53.2946 68.6838 53.1067 68.8089 52.8831C68.9341 52.6595 68.9999 52.4076 69 52.1514V22.8867C68.9999 22.6305 68.9341 22.3785 68.8089 22.1549C68.6838 21.9313 68.5035 21.7435 68.2852 21.6094L38.3613 3.26953H38.3584C38.2977 3.2278 38.2341 3.19059 38.168 3.1582C38.1278 3.13781 38.0868 3.11924 38.0449 3.10254C38.04 3.10056 38.0352 3.09861 38.0303 3.09668C38.0254 3.0947 38.0205 3.09275 38.0156 3.09082C37.9732 3.07621 37.9302 3.0635 37.8867 3.05273C37.8413 3.04082 37.7954 3.03104 37.749 3.02344C37.7461 3.02245 37.7432 3.02148 37.7402 3.02051C37.7363 3.02049 37.7324 3.02049 37.7285 3.02051C37.6935 3.01438 37.6584 3.00949 37.623 3.00586C37.5987 3.00429 37.5742 3.00331 37.5498 3.00293C37.5303 3.00157 37.5108 3.00059 37.4912 3ZM36.1641 5.17676C36.2898 5.42832 36.4837 5.63947 36.7236 5.78613L37.4238 6.2168L36.832 6.5127L36.1641 5.17676ZM38.8359 5.17676L38.168 6.5127L37.5762 6.2168L38.2764 5.78613C38.5163 5.63947 38.7102 5.42832 38.8359 5.17676ZM36.8291 5.8418C37.0285 5.94174 37.2477 5.99597 37.4707 6.00053C37.6936 6.00509 37.9149 5.95987 38.1182 5.86816L37.5 6.17871L36.8291 5.8418ZM37.5 6.26074L66 23.7275V51.3105L60 54.9873V27.9258C59.9999 27.6695 59.9341 27.4176 59.8089 27.194C59.6838 26.9704 59.5035 26.7826 59.2852 26.6484L38.2852 13.7783C38.049 13.6332 37.7772 13.5564 37.5 13.5564C37.2228 13.5564 36.951 13.6332 36.7148 13.7783L15.7148 26.6484C15.4965 26.7826 15.3162 26.9704 15.1911 27.194C15.0659 27.4176 15.0001 27.6695 15 27.9258V54.9873L9 51.3105V23.7275L37.5 6.26074ZM32.9561 25.4385C32.694 25.4457 32.4385 25.5215 32.2148 25.6582L23.2148 31.1748C22.9965 31.3089 22.8162 31.4968 22.6911 31.7204C22.5659 31.944 22.5001 32.1959 22.5 32.4521V62.2617C22.4999 62.5187 22.5659 62.7714 22.6916 62.9956C22.8173 63.2198 22.9985 63.408 23.2178 63.542L36.498 71.6748L36.3311 71.4521C36.4727 71.6395 36.6563 71.7911 36.8672 71.8945C36.9562 71.9388 37.0495 71.9742 37.1455 72C37.1938 72.0132 37.2427 72.0239 37.292 72.0322C37.3338 72.0389 37.3758 72.0438 37.418 72.0469C37.4258 72.0479 37.4336 72.0489 37.4414 72.0498C37.4473 72.0498 37.4531 72.0498 37.459 72.0498C37.4863 72.0515 37.5137 72.0525 37.541 72.0527C37.5664 72.0524 37.5918 72.0514 37.6172 72.0498C37.6416 72.0484 37.6661 72.0465 37.6904 72.0439C37.7238 72.0402 37.757 72.0353 37.79 72.0293C37.8394 72.021 37.8883 72.0102 37.9365 71.9971C37.9832 71.9837 38.0291 71.968 38.0742 71.9502C38.0752 71.9502 38.0762 71.9502 38.0771 71.9502C38.0791 71.9492 38.0811 71.9482 38.083 71.9473C38.1238 71.9314 38.1639 71.9139 38.2031 71.8945C38.4745 71.761 38.6991 71.5486 38.8477 71.2852L38.6895 71.5986L51.7852 63.5391C52.0035 63.4049 52.1838 63.2171 52.3089 62.9935C52.4341 62.7699 52.4999 62.518 52.5 62.2617V32.4521C52.4999 32.1959 52.4341 31.944 52.3089 31.7204C52.1838 31.4968 52.0035 31.3089 51.7852 31.1748L42.7852 25.6582C42.5579 25.5186 42.2975 25.4422 42.0309 25.4367C41.7643 25.4313 41.501 25.497 41.2682 25.6271C41.0354 25.7572 40.8415 25.9471 40.7065 26.177C40.5715 26.407 40.5002 26.6689 40.5 26.9355V56.4199L37.5352 58.2363L34.5 56.376V26.9355C34.4997 26.7351 34.4592 26.5367 34.3809 26.3521C34.3026 26.1676 34.1881 26.0006 34.0441 25.861C33.9002 25.7214 33.7298 25.6121 33.5429 25.5396C33.356 25.467 33.1565 25.4326 32.9561 25.4385ZM31.5 29.6162V57.2168C31.4999 57.4738 31.5659 57.7265 31.6916 57.9507C31.8173 58.1749 31.9985 58.363 32.2178 58.4971L36.75 61.2744C36.9859 61.4189 37.2571 61.4954 37.5337 61.4954C37.8103 61.4954 38.0815 61.4189 38.3174 61.2744L42.7852 58.5381C43.0039 58.4037 43.1845 58.2154 43.3097 57.9912C43.4348 57.7671 43.5004 57.5145 43.5 57.2578V29.6162L49.5 33.293V61.4238L37.5322 68.7891L25.5 61.4209V33.293L31.5 29.6162ZM36.8672 68.54L37.459 68.8359L36.7529 69.2695C36.5391 69.4013 36.3618 69.5846 36.2373 69.8027L36.8672 68.54ZM37.9805 68.6514L38.7275 69.6475C38.6142 69.4953 38.473 69.3661 38.3115 69.2666L37.6084 68.8359L37.9805 68.6514ZM37.5352 68.874L38.2061 69.208C38.0041 69.1072 37.7819 69.0532 37.5562 69.0502C37.3305 69.0471 37.107 69.0951 36.9023 69.1904L37.5352 68.874Z" fill="white"/>
</svg>
